# xmcd
#
# Track frame offsets:
#	150
#	24744
#	48520
#	69740
#	94254
#	116607
#	138535
#	166992
#	193900
#	211782
#	232930
#
# Disc length: 3487 seconds
#
# Revision: 1
# Processed by: cddbd v1.5.1PL0 Copyright (c) Steve Scherf et al.
# Submitted via: CDex 1.50Beta5
#
DISCID=9d0d9d0b
DTITLE=葛谷葉子 - MUSIC GREETINGS VOLUME ONE
DYEAR=1999
DGENRE=
TTITLE0=TRUE LIES
TTITLE1=Natural
TTITLE2=Sweet Rhythm
TTITLE3=All Night
TTITLE4=恋
TTITLE5=夢も見ないまま
TTITLE6=最後の夜
TTITLE7=Round and Round
TTITLE8=夏の残り香
TTITLE9=すべてを守りたい
TTITLE10=Promise me
EXTD=
EXTT0=
EXTT1=
EXTT2=
EXTT3=
EXTT4=
EXTT5=
EXTT6=
EXTT7=
EXTT8=
EXTT9=
EXTT10=
PLAYORDER=
